# xmcd
#
# Track frame offsets: 
#        150
#        18326
#        36271
#        50537
#        72436
#        94274
#        113877
#        132311
#        150290
#        170733
#
# Disc length: 2611 seconds
#
# Revision: 0
# Processed by: cddbd v1.5.2PL0 Copyright (c) Steve Scherf et al.
# Submitted via: ExactAudioCopy v0.99pb5
#
DISCID=840a310a
DTITLE=Lost Dogma - Hard Times
DYEAR=1900
DGENRE=
TTITLE0=Snapshots
TTITLE1=OK 2B Yerself
TTITLE2=Long Road
TTITLE3=Serendipity
TTITLE4=Hard Times
TTITLE5=Drive All Night
TTITLE6=Rosemary's Friend
TTITLE7=Wanderlust
TTITLE8=Hell's 1/2 Acre
TTITLE9=The Hobo's Lament
EXTD=
EXTT0=
EXTT1=
EXTT2=
EXTT3=
EXTT4=
EXTT5=
EXTT6=
EXTT7=
EXTT8=
EXTT9=
PLAYORDER=
